<?xml version="1.0" encoding="UTF-8" standalone="no"?><!DOCTYPE svg PUBLIC "-//W3C//DTD SVG 1.1//EN" "http://www.w3.org/Graphics/SVG/1.1/DTD/svg11.dtd"><svg width="100%" height="100%" viewBox="0 0 2596 198" version="1.1" xmlns="http://www.w3.org/2000/svg" xmlns:xlink="http://www.w3.org/1999/xlink" xml:space="preserve" xmlns:serif="http://www.serif.com/" style="fill-rule:evenodd;clip-rule:evenodd;stroke-linejoin:round;stroke-miterlimit:2;"><rect id="Mikkelinen-text-board" serif:id="Mikkelinen text board" x="0" y="0" width="2595.02" height="197.858" style="fill:none;"/><clipPath id="_clip1"><rect x="0" y="0" width="2595.02" height="197.858"/></clipPath><g clip-path="url(#_clip1)"><g id="Mikkelinen" transform="matrix(4.16667,0,0,4.16667,-408.181,-124.973)"><g transform="matrix(72,0,0,72,97.2493,77.4623)"><path d="M0.01,-0l0.256,-0l-0,-0.35l0.256,0.35l0.128,-0l0.256,-0.35l0,0.35l0.256,-0l0,-0.657l-0.32,0l-0.256,0.329l-0.256,-0.329l-0.32,0l-0,0.657Z" style="fill:#0395de;fill-rule:nonzero;"/></g><g transform="matrix(72,0,0,72,190.941,77.4623)"><rect x="0.01" y="-0.657" width="0.256" height="0.657" style="fill:#0395de;fill-rule:nonzero;"/></g><g transform="matrix(72,0,0,72,219.136,77.4623)"><path d="M0.377,-0.225l0.241,0.225l0.336,-0l-0.34,-0.329l0.34,-0.328l-0.336,0l-0.241,0.224l-0.111,0l-0,-0.224l-0.256,0l-0,0.657l0.256,-0l-0,-0.225l0.111,0Z" style="fill:#0395de;fill-rule:nonzero;"/></g><g transform="matrix(72,0,0,72,289.695,77.4623)"><path d="M0.377,-0.225l0.241,0.225l0.336,-0l-0.34,-0.329l0.34,-0.328l-0.336,0l-0.241,0.224l-0.111,0l-0,-0.224l-0.256,0l-0,0.657l0.256,-0l-0,-0.225l0.111,0Z" style="fill:#fff;fill-rule:nonzero;"/></g><g transform="matrix(72,0,0,72,360.253,77.4623)"><path d="M0.01,-0l0.768,-0l-0,-0.168l-0.512,-0l-0,-0.084l0.512,0l-0,-0.152l-0.512,0l-0,-0.084l0.512,0l-0,-0.168l-0.768,0l-0,0.656Z" style="fill:#fff;fill-rule:nonzero;"/></g><g transform="matrix(72,0,0,72,425.327,77.4623)"><path d="M0.01,-0.657l-0,0.657l0.768,-0l-0,-0.208l-0.512,0l-0,-0.449l-0.256,0Z" style="fill:#fff;fill-rule:nonzero;"/></g><g transform="matrix(72,0,0,72,486.851,77.4623)"><rect x="0.01" y="-0.657" width="0.256" height="0.657" style="fill:#fff;fill-rule:nonzero;"/></g><g transform="matrix(72,0,0,72,515.046,77.4623)"><path d="M0.65,-0.309l-0.288,-0.348l-0.352,0l-0,0.657l0.256,-0l-0,-0.401l0.352,0.401l0.288,-0l0,-0.657l-0.256,0l-0,0.348Z" style="fill:#fff;fill-rule:nonzero;"/></g><g transform="matrix(72,0,0,72,590.316,77.4623)"><path d="M0.01,-0l0.768,-0l-0,-0.168l-0.512,-0l-0,-0.084l0.512,0l-0,-0.152l-0.512,0l-0,-0.084l0.512,0l-0,-0.168l-0.768,0l-0,0.656Z" style="fill:#fff;fill-rule:nonzero;"/></g><g transform="matrix(72,0,0,72,655.39,77.4623)"><path d="M0.65,-0.309l-0.288,-0.348l-0.352,0l-0,0.657l0.256,-0l-0,-0.401l0.352,0.401l0.288,-0l0,-0.657l-0.256,0l-0,0.348Z" style="fill:#fff;fill-rule:nonzero;"/></g></g></g></svg>